<svg xmlns="http://www.w3.org/2000/svg" version="1.1" xmlns:xlink="http://www.w3.org/1999/xlink" xmlns:svgjs="http://svgjs.com/svgjs" width="1440" height="560" preserveAspectRatio="none" viewBox="0 0 1440 560"><g mask="url(&quot;#SvgjsMask1054&quot;)" fill="none"><rect width="1440" height="560" x="0" y="0" fill="rgba(1, 75, 173, 1)"></rect><path d="M952 442L-50 441" stroke-width="8" stroke="url(#SvgjsLinearGradient1055)" stroke-linecap="round" class="Left"></path><path d="M35 290L747 289" stroke-width="8" stroke="url(#SvgjsLinearGradient1056)" stroke-linecap="round" class="Right"></path><path d="M1145 53L1921 52" stroke-width="8" stroke="url(#SvgjsLinearGradient1055)" stroke-linecap="round" class="Left"></path><path d="M905 554L1303 553" stroke-width="6" stroke="url(#SvgjsLinearGradient1056)" stroke-linecap="round" class="Right"></path><path d="M916 413L1651 412" stroke-width="8" stroke="url(#SvgjsLinearGradient1056)" stroke-linecap="round" class="Right"></path><path d="M308 493L1121 492" stroke-width="8" stroke="url(#SvgjsLinearGradient1055)" stroke-linecap="round" class="Left"></path><path d="M851 35L132 34" stroke-width="8" stroke="url(#SvgjsLinearGradient1055)" stroke-linecap="round" class="Left"></path><path d="M800 83L1210 82" stroke-width="10" stroke="url(#SvgjsLinearGradient1056)" stroke-linecap="round" class="Right"></path><path d="M1042 356L12 355" stroke-width="10" stroke="url(#SvgjsLinearGradient1056)" stroke-linecap="round" class="Right"></path><path d="M1431 119L758 118" stroke-width="10" stroke="url(#SvgjsLinearGradient1055)" stroke-linecap="round" class="Left"></path><path d="M1045 240L366 239" stroke-width="6" stroke="url(#SvgjsLinearGradient1056)" stroke-linecap="round" class="Right"></path><path d="M1221 304L1685 303" stroke-width="6" stroke="url(#SvgjsLinearGradient1055)" stroke-linecap="round" class="Left"></path><path d="M739 191L1674 190" stroke-width="6" stroke="url(#SvgjsLinearGradient1056)" stroke-linecap="round" class="Right"></path><path d="M797 160L-228 159" stroke-width="10" stroke="url(#SvgjsLinearGradient1056)" stroke-linecap="round" class="Right"></path></g><defs><mask id="SvgjsMask1054"><rect width="1440" height="560" fill="#ffffff"></rect></mask><linearGradient x1="100%" y1="0%" x2="0%" y2="0%" id="SvgjsLinearGradient1055"><stop stop-color="rgba(62, 183, 255, 0)" offset="0"></stop><stop stop-color="rgba(62, 183, 255, 1)" offset="1"></stop></linearGradient><linearGradient x1="0%" y1="0%" x2="100%" y2="0%" id="SvgjsLinearGradient1056"><stop stop-color="rgba(62, 183, 255, 0)" offset="0"></stop><stop stop-color="rgba(62, 183, 255, 1)" offset="1"></stop></linearGradient></defs></svg>