<svg id="visual" viewBox="0 0 900 600" width="900" height="600" xmlns="http://www.w3.org/2000/svg" xmlns:xlink="http://www.w3.org/1999/xlink" version="1.1"><path d="M0 109L25 128.5C50 148 100 187 150 230.5C200 274 250 322 300 351.5C350 381 400 392 450 392.5C500 393 550 383 600 345.7C650 308.3 700 243.7 750 257C800 270.3 850 361.7 875 407.3L900 453L900 0L875 0C850 0 800 0 750 0C700 0 650 0 600 0C550 0 500 0 450 0C400 0 350 0 300 0C250 0 200 0 150 0C100 0 50 0 25 0L0 0Z" fill="#0099FF" stroke-linecap="round" stroke-linejoin="miter"></path></svg>